# xmcd CD database file
#
# Track frame offsets:
#	150
#	16105
#	33755
#	50460
#	63415
#	82525
#	102270
#	118982
#	135507
#	147587
#	162200
#	175967
#
# Disc length: 2603 seconds
#
# Revision: 5
# Processed by: cddbd v1.5.2PL0 Copyright (c) Steve Scherf et al.
# Submitted via: jetAudio 5
#
DISCID=950a290c
DTITLE=Kenny Rogers - Greatest Hits
DYEAR=1980
DGENRE=Country
TTITLE0=The Gambler
TTITLE1=Lady
TTITLE2=Don't Fall In Love With A Dreamer
TTITLE3=Ruby Don't Take Your Love To Town
TTITLE4=She Believes In Me
TTITLE5=Coward Of The County
TTITLE6=Lucille
TTITLE7=You Decorated My Life
TTITLE8=Reuben James
TTITLE9=Love The World Away
TTITLE10=Every Time Two Fools Collide
TTITLE11=Long Arm Of The Law
EXTD=
EXTT0=
EXTT1=
EXTT2=
EXTT3=
EXTT4=
EXTT5=
EXTT6=
EXTT7=
EXTT8=
EXTT9=
EXTT10=
EXTT11=
PLAYORDER=
